<svg width="1070" height="200" viewBox="0 0 1070 200" fill="none" xmlns="http://www.w3.org/2000/svg">
<path d="M92.3042 128.353C92.3042 97.573 113.459 65.7354 137.469 43.2059C146.037 35.1671 159.787 25.1187 174.595 16.9742C184.538 11.5798 194.904 7.13736 204.741 4.70459L15.4075 20.359C6.09949 21.0994 -0.775737 27.8688 0.0704447 35.4844C4.5129 79.2744 8.84958 123.064 13.1863 166.854C13.9267 174.576 21.225 181.451 29.3695 182.085L138.21 190.97C131.229 188.326 124.776 184.624 118.959 179.97C99.9199 164.844 92.3042 146.863 92.3042 128.353Z" fill="black"/>
<path d="M260.796 133.112C260.584 133.43 260.479 133.747 260.373 134.17C260.373 134.382 260.479 134.593 260.69 134.699L260.056 135.334L260.796 135.651C252.652 152.786 238.584 167.806 221.66 178.595C209.496 186.422 195.852 191.816 181.572 194.46C203.785 196.259 225.997 198.163 248.209 199.961C256.354 200.595 263.652 193.297 264.392 183.672C265.979 163.363 267.565 143.055 269.152 122.747C267.354 125.285 265.344 127.612 263.229 129.939C262.277 130.997 261.431 132.055 260.796 133.112Z" fill="black"/>
<path d="M262.066 0.0510425L223.882 3.22422C230.017 4.07041 235.306 6.39741 239.325 10.9456C244.402 16.6574 247.364 25.5423 247.364 38.4465C247.364 40.7735 247.258 43.2063 247.152 45.7449V46.1679L246.835 46.3795C243.979 48.2834 241.547 49.2354 239.22 49.2354C236.893 49.2354 234.671 48.2834 233.085 46.591C231.392 44.6871 229.912 42.5717 228.96 40.2447C226.633 35.2734 224.834 29.2443 222.613 24.6961C221.132 21.6287 219.546 19.3017 217.748 18.2439C214.363 16.34 210.661 15.3881 206.853 15.3881C200.084 15.3881 192.68 18.3497 185.275 23.321C177.871 28.2924 170.361 35.4849 163.275 43.8409C148.89 60.4473 135.88 81.9191 127.1 100.747C121.283 113.334 117.264 124.757 116.1 132.796C115.571 136.181 115.36 139.671 115.254 143.056C115.254 154.162 118.427 161.46 123.821 166.008C129.216 170.557 136.832 172.566 145.716 172.566C161.688 172.566 181.785 166.326 199.978 158.393C211.719 153.316 223.036 147.392 233.931 140.623L233.508 140.729L232.767 139.248C245.249 131.103 257.518 122.642 269.576 113.968C272.115 81.496 274.653 49.0238 277.192 16.4458C278.25 6.71472 271.374 -0.689366 262.066 0.0510425Z" fill="#0099D5"/>
<path d="M396.614 146.439C392.172 148.766 382.123 152.151 369.43 152.151C340.872 152.151 322.256 132.583 322.256 103.601C322.256 74.4081 342.247 53.3594 373.133 53.3594C383.287 53.3594 392.277 55.8979 397.037 58.2249L393.124 71.5523C388.998 69.2253 382.546 67.1098 373.133 67.1098C351.449 67.1098 339.708 83.1873 339.708 102.861C339.708 124.756 353.776 138.295 372.604 138.295C379.902 138.295 387.095 136.708 393.758 133.641L396.614 146.439Z" fill="black"/>
<path d="M495.403 101.911C495.403 136.921 471.075 152.153 448.228 152.153C422.631 152.153 402.852 133.325 402.852 103.391C402.852 71.6596 423.583 53.1494 449.815 53.1494C476.998 53.1494 495.403 72.9289 495.403 101.911ZM420.304 102.863C420.304 123.594 432.256 139.248 449.074 139.248C465.469 139.248 477.844 123.806 477.844 102.439C477.844 86.362 469.806 66.0537 449.497 66.0537C429.189 66.0537 420.304 84.8812 420.304 102.863Z" fill="black"/>
<path d="M511.266 80.9676C511.266 71.2365 511.055 63.1978 510.42 55.3706H525.44L526.18 70.6019H526.815C532.103 61.6112 540.882 53.1494 556.537 53.1494C569.441 53.1494 579.278 60.9766 583.297 72.1885H583.72C586.365 67.323 589.961 63.1978 594.298 59.8131C599.904 55.4764 606.25 53.1494 615.241 53.1494C627.722 53.1494 646.338 61.3997 646.338 94.1892V149.931H629.52V96.4104C629.52 78.2175 622.856 67.323 609 67.323C599.269 67.323 591.548 74.6213 588.692 82.9773C587.74 85.7274 587.317 88.689 587.317 91.5449V150.037H570.499V93.2373C570.499 78.2175 563.835 67.2172 550.719 67.2172C539.931 67.2172 532.103 75.7848 529.353 84.4581C528.401 87.2082 527.872 90.0641 527.978 92.92V150.037H511.16L511.266 80.9676Z" fill="black"/>
<path d="M668.553 86.2563C668.553 74.0924 668.13 64.3613 667.812 55.3706H683.255L684.101 71.5539H684.525C691.611 60.0246 702.717 53.1494 718.16 53.1494C741.113 53.1494 758.248 72.5058 758.248 101.276C758.248 135.335 737.517 152.153 715.199 152.153C702.718 152.153 691.717 146.652 686.111 137.239H685.688V188.644H668.659V86.2563H668.553ZM685.582 111.43C685.582 113.757 685.9 116.19 686.323 118.517C689.284 130.363 699.967 138.614 712.131 138.614C730.324 138.614 740.901 123.806 740.901 102.016C740.901 82.9773 730.853 66.7941 712.766 66.7941C701.025 66.7941 690.025 75.2559 686.746 88.1602C686.005 90.4872 685.688 92.8142 685.582 95.1412V111.43Z" fill="black"/>
<path d="M794.634 32.6294V55.2648H819.279V68.3806H794.634V119.469C794.634 131.21 798.019 137.873 807.538 137.873C810.923 137.979 814.308 137.662 817.481 136.71L818.221 149.614C813.356 151.412 808.173 152.258 802.99 152.153C794.951 152.153 788.499 149.402 784.374 144.748C779.508 139.671 777.71 131.21 777.71 120.103V68.3806H763.008V55.3705H777.71V37.918L794.634 32.6294Z" fill="black"/>
<path d="M899.345 127.295C899.239 134.911 899.768 142.527 900.932 150.036H885.278L883.902 138.084H883.374C878.085 145.488 867.931 152.152 854.392 152.152C835.247 152.152 825.41 138.613 825.41 124.968C825.41 102.121 845.719 89.5344 882.316 89.746V87.8421C882.316 80.0149 880.2 65.9471 860.844 65.9471C852.171 65.9471 843.603 68.4857 836.199 73.0339L832.285 61.7162C840.113 56.6391 851.43 53.2544 863.383 53.2544C892.364 53.2544 899.345 73.0339 899.345 91.9672V127.295V127.295ZM882.739 101.698C863.911 101.275 842.651 104.66 842.651 123.064C842.651 134.276 850.055 139.459 858.834 139.459C869.094 139.671 878.402 133.324 881.787 123.593C882.422 121.795 882.739 119.997 882.739 118.093V101.698Z" fill="black"/>
<path d="M921.24 11.1572H938.481V150.037H921.24V11.1572Z" fill="black"/>
<path d="M961.543 150.038V55.3711H978.784V150.038H961.543Z" fill="black"/>
<path d="M1067.95 127.296C1067.84 134.912 1068.37 142.527 1069.54 150.037H1053.88L1052.51 138.085H1051.98C1046.69 145.489 1036.53 152.153 1023 152.153C1003.85 152.153 994.014 138.614 994.014 124.969C994.014 102.122 1014.32 89.5352 1050.92 89.7468V87.8429C1050.92 80.0157 1048.8 65.9479 1029.45 65.9479C1020.77 65.9479 1012.21 68.3807 1004.8 72.9289L1000.89 61.6112C1008.72 56.5341 1020.03 53.1494 1031.99 53.1494C1060.97 53.1494 1067.95 72.9289 1067.95 91.8622V127.296V127.296ZM1051.34 101.699C1032.51 101.276 1011.25 104.661 1011.25 123.065C1011.25 134.277 1018.66 139.46 1027.44 139.46C1037.7 139.777 1047.01 133.325 1050.28 123.594C1050.92 121.796 1051.24 119.998 1051.24 118.094V101.699H1051.34Z" fill="black"/>
<path d="M971.914 42.9945C980.904 40.5618 990.424 28.0806 983.337 13.8013C979.106 23.5324 958.586 30.6191 958.586 30.6191C965.25 33.2634 969.587 32.8404 969.587 32.8404C969.587 32.8404 965.461 37.0713 953.086 34.7443C954.778 41.6195 964.827 45.0042 971.914 42.9945Z" fill="#0099D5"/>
</svg>
