<svg width="1559" height="200" viewBox="0 0 1559 200" fill="none" xmlns="http://www.w3.org/2000/svg">
<path d="M0 191.69H113.539V156.253H35.7076V116.133H107.177V80.6961H35.7076V40.6029H113.539V5.16602H0V191.69Z" fill="black"/>
<path d="M222.448 84.5128L192.399 75.9311C182.274 73.251 173.746 67.7825 173.746 56.8456C173.746 43.797 184.413 37.9225 198.003 37.9225C209.995 37.9225 221.176 44.0407 224.641 56.0334H264.355C260.349 24.3325 237.175 2.4585 199.871 2.4585C167.358 2.4585 138.039 22.7081 138.039 56.8185C138.039 84.2692 152.17 103.03 180.677 110.772L212.134 120.004C225.183 123.469 231.328 129.831 231.328 140.226C231.328 153.004 220.391 158.879 204.689 158.879C186.849 158.879 174.586 148.483 172.447 132.782H135.684C137.552 169.816 163.919 194.316 204.716 194.316C245.216 194.316 267.063 171.657 267.063 140.253C267.008 108.823 251.226 92.2554 222.448 84.5128Z" fill="black"/>
<path d="M393.835 80.6958H358.398V116.133H393.835V151.461H429.272V116.133V115.997V80.6958H393.835Z" fill="#D50F31"/>
<path d="M429.275 56.0602C423.563 23.52 399.225 2.48535 360.215 2.48535C321.313 2.48535 296.894 23.4388 291.182 56.0602C290.316 60.9602 289.883 66.1309 289.883 71.5182V125.337C289.883 166.621 315.466 194.343 360.242 194.343V158.906C340.778 158.906 325.617 146.913 325.617 125.337V71.5182C325.617 65.6166 326.782 60.4729 328.839 56.0602C334.28 44.3111 346.138 37.9492 360.269 37.9492C374.374 37.9492 386.285 44.3652 391.781 56.0602C392.349 57.2514 392.837 58.4967 393.27 59.7961H429.844C429.627 58.5237 429.492 57.3055 429.275 56.0602Z" fill="black"/>
<path d="M492.543 151.975H470.02V4.65088H492.543V151.975Z" fill="#D50F31"/>
<path d="M628.094 4.62402H650.618V151.948H628.311V49.6714L597.99 112.396H579.473L549.153 49.6714V151.948H526.846V4.62402H549.369L588.732 86.0828L628.094 4.62402Z" fill="#D50F31"/>
<path d="M786.16 4.62402H808.684V151.948H786.377V49.6714L756.057 112.396H737.539L707.219 49.6714V151.948H684.912V4.62402H707.436L746.798 86.0828L786.16 4.62402Z" fill="#D50F31"/>
<path d="M838.574 54.5168C838.574 22.7346 859.826 2.53906 891.391 2.53906C922.957 2.53906 944.208 22.7346 944.208 54.5168V102.082C944.208 133.864 922.957 154.059 891.391 154.059C859.826 154.059 838.574 133.864 838.574 102.082V54.5168ZM921.711 54.5168C921.711 33.8881 906.145 24.8461 891.391 24.8461C876.637 24.8461 861.071 33.8881 861.071 54.5168V102.082C861.071 122.71 876.637 131.752 891.391 131.752C906.145 131.752 921.711 122.71 921.711 102.082V54.5168Z" fill="#D50F31"/>
<path d="M974.121 4.62402H1030.94C1060.21 4.62402 1076.21 21.2461 1076.21 46.7206C1076.21 59.1465 1071.15 69.8668 1061.7 76.6077C1074.31 84.1878 1079.81 96.3971 1079.81 109.446C1079.81 135.543 1064.03 151.948 1034.55 151.948H974.148V4.62402H974.121ZM996.645 26.9582V66.537H1030.94C1044.62 66.537 1053.25 59.5796 1053.25 46.7476C1053.25 33.9156 1044.62 26.9582 1030.94 26.9582H996.645ZM996.645 88.8171V129.641H1034.52C1048.41 129.641 1056.83 122.684 1056.83 109.229C1056.83 95.7474 1048.41 88.8171 1034.52 88.8171H996.645V88.8171Z" fill="#D50F31"/>
<path d="M1129.67 151.975H1107.15V4.65088H1129.67V151.975Z" fill="#D50F31"/>
<path d="M1163.97 4.62402H1186.5V129.641H1250.9V151.948H1163.97V4.62402Z" fill="#D50F31"/>
<path d="M1294.06 151.975H1271.53V4.65088H1294.06V151.975Z" fill="#D50F31"/>
<path d="M1350.88 66.51H1415.29V88.8171H1350.88V129.641H1415.29V151.948H1328.36V4.62402H1415.29V26.9312H1350.88V66.51Z" fill="#D50F31"/>
<path d="M1468.75 88.6273V151.975H1446.23V4.65088H1504.11C1533.37 4.65088 1549.37 21.2729 1549.37 46.7474C1549.37 68.4318 1537.79 83.592 1516.32 87.5715L1554.22 151.975H1528.96L1491.71 88.6273H1468.75V88.6273ZM1504.11 26.9579H1468.75V66.9429H1504.11C1517.78 66.9429 1526.42 59.7959 1526.42 46.9369C1526.42 34.1049 1517.81 26.9579 1504.11 26.9579Z" fill="#D50F31"/>
</svg>
