<svg width="720" height="200" viewBox="0 0 720 200" fill="none" xmlns="http://www.w3.org/2000/svg">
<path d="M0 193.45H115.395V157.461H36.2914V116.685H108.929V80.6687H36.2914V39.92H115.395V3.90381H0V193.45Z" fill="black"/>
<path d="M226.08 84.5504L195.539 75.8284C185.249 73.0769 176.582 67.5741 176.582 56.5683C176.582 43.2789 187.423 37.3083 201.345 37.3083C213.534 37.3083 224.897 43.5266 228.419 55.7154H268.755C264.683 23.4962 241.241 1.26465 203.216 1.26465C170.199 1.26465 140.373 21.8453 140.373 56.5409C140.373 84.4404 154.736 103.508 183.708 111.349L215.68 120.732C228.942 124.254 235.16 130.747 235.16 141.312C235.16 154.299 224.154 160.242 208.086 160.242C189.926 160.242 177.49 149.704 175.316 133.719H137.842C139.74 171.358 166.567 196.259 208.003 196.259C249.44 196.259 271.286 173.229 271.286 141.23C271.286 109.231 255.245 92.4195 225.998 84.5504" fill="black"/>
<path d="M400.274 80.6689H364.258V116.685H400.274V152.564H436.29V116.685V116.548V80.6689H400.274Z" fill="#0084BE"/>
<path d="M436.29 55.6593C430.485 22.6422 405.75 1.2085 366.129 1.2085C326.508 1.2085 301.773 22.6422 295.94 55.6593C295.056 60.8495 294.614 66.1052 294.619 71.37V126.068C294.619 168.055 320.62 196.202 366.156 196.202V160.214C346.374 160.214 330.938 148.025 330.938 126.096V71.3425C330.86 65.9285 331.978 60.5639 334.212 55.6318C339.715 43.6906 351.766 37.2247 366.156 37.2247C380.546 37.2247 392.57 43.7181 398.073 55.6593C398.655 56.8925 399.161 58.1606 399.586 59.4563H436.758C436.593 58.1356 436.593 56.8975 436.29 55.6593Z" fill="black"/>
<path d="M500.597 88.6757V153.059H477.705V3.38135H536.531C566.274 3.38135 582.535 20.2751 582.535 46.1661C582.535 68.1775 570.758 83.5856 548.94 87.6577L587.46 153.114H561.789L523.929 88.6757H500.597ZM536.531 25.9981H500.597V66.6643H536.531C550.453 66.6643 559.23 59.3729 559.23 46.3312C559.23 33.2894 550.453 26.0531 536.531 26.0531V25.9981Z" fill="#0084BE"/>
<path d="M695.922 3.38135H718.814V153.114H695.922V88.9233H634.318V153.114H611.426V3.38135H634.318V66.2516H695.922V3.38135Z" fill="#0084BE"/>
</svg>
