<svg width="160" height="109" viewBox="0 0 160 109" fill="none" xmlns="http://www.w3.org/2000/svg">
<g opacity="0.4">
<path fill-rule="evenodd" clip-rule="evenodd" d="M27.1589 2.88077C28.3935 2.41782 29.628 2.0063 30.914 1.59479C29.0622 2.5207 28.5478 2.77789 26.4902 3.85812C26.696 3.49804 26.9017 3.18941 27.1589 2.88077Z" fill="white"/>
<path fill-rule="evenodd" clip-rule="evenodd" d="M35.2366 0.61723C35.9053 0.514351 36.574 0.411472 37.2427 0.308594C37.4485 0.61723 37.6542 0.977305 37.86 1.44026C36.111 2.36617 35.5452 2.6748 33.5905 3.75503C33.5391 2.82912 33.5391 2.05753 33.5391 1.44026C34.3621 1.02874 34.825 0.771548 35.2366 0.61723Z" fill="white"/>
<path fill-rule="evenodd" clip-rule="evenodd" d="M46.8613 0.103027C47.5815 0.154467 48.3016 0.257345 49.0218 0.360224C48.8675 0.463103 48.6103 0.617421 48.1988 0.926057C47.7358 0.617421 47.2728 0.360224 46.8613 0.103027Z" fill="white"/>
<path fill-rule="evenodd" clip-rule="evenodd" d="M60.5958 3.8064C62.0361 4.47511 63.4764 5.2467 64.8653 6.06973C65.0196 6.22405 65.2253 6.37836 65.3797 6.53268C64.6081 7.40715 64.6081 7.45859 63.5279 8.33306C62.3447 6.9442 61.1102 5.70965 59.8242 4.57799C60.2357 4.21791 60.4929 4.01215 60.5958 3.8064Z" fill="white"/>
<path fill-rule="evenodd" clip-rule="evenodd" d="M50.2051 2.52061C51.3882 1.74902 51.6454 1.5947 52.2626 1.02887C53.5486 1.74902 54.7831 2.57205 55.9662 3.60084C54.7317 4.52674 54.6288 4.57818 53.0342 5.65841C52.1597 4.42387 51.2338 3.39508 50.2051 2.52061Z" fill="white"/>
<path fill-rule="evenodd" clip-rule="evenodd" d="M41.1523 1.54318C42.0783 1.02879 43.0556 0.514394 43.9815 0C44.8045 0.514394 45.679 1.18311 46.502 2.00614C45.2675 2.72629 44.0329 3.49788 42.7984 4.21803C42.2326 3.1378 41.6667 2.26333 41.1523 1.54318Z" fill="white"/>
<path fill-rule="evenodd" clip-rule="evenodd" d="M0 41.6659C0 41.563 0 41.4601 0 41.4087C1.13167 37.9108 1.18311 37.8079 2.57197 34.9788C2.46909 37.1392 2.57197 39.3511 2.82916 41.6144C1.49174 45.1638 1.4403 45.4209 0.874469 48.3016C0.82303 47.9415 0.720151 47.6328 0.668712 47.2728C0.308636 45.3695 0.102879 43.4663 0 41.6659Z" fill="white"/>
<path fill-rule="evenodd" clip-rule="evenodd" d="M0.617188 35.4417C1.1316 32.2524 2.05753 29.1661 3.29211 26.234C3.54931 25.8225 3.9094 25.3081 4.32092 24.6394C3.70363 26.5427 3.24067 28.5488 2.98346 30.6578C1.54312 33.2812 1.18304 34.0014 0.617188 35.4417Z" fill="white"/>
<path fill-rule="evenodd" clip-rule="evenodd" d="M9.72216 15.5345C11.574 13.2712 13.6316 11.2136 15.9464 9.36182C15.1748 10.3392 14.4546 11.4194 13.7859 12.5511C11.3168 14.763 10.8024 15.2259 8.69336 17.3864C9.05344 16.7691 9.36208 16.1518 9.72216 15.5345Z" fill="white"/>
<path fill-rule="evenodd" clip-rule="evenodd" d="M19.4957 6.78984C21.0389 5.81249 22.6335 4.88658 24.2796 4.11499C23.8166 4.68082 23.3537 5.2981 22.9422 5.96681C20.3188 7.61287 19.8044 7.97294 17.3867 9.72188C18.0554 8.64165 18.7241 7.66431 19.4957 6.78984Z" fill="white"/>
<path fill-rule="evenodd" clip-rule="evenodd" d="M75.7182 15.3802C77.0041 16.9234 78.1873 18.6209 79.2675 20.3698C79.0617 20.7299 78.8045 20.9871 78.2387 21.6044C77.4157 19.5982 76.4383 17.695 75.3066 15.946C75.461 15.6888 75.6153 15.5345 75.7182 15.3802Z" fill="white"/>
<path fill-rule="evenodd" clip-rule="evenodd" d="M81.2736 23.9709C82.1996 25.8741 82.9712 27.8803 83.6399 29.9379C82.714 31.121 82.5596 31.2753 81.2222 32.4584C81.1193 31.8411 81.0165 31.2238 80.9136 30.6066C80.6049 28.9091 80.1934 27.3144 79.7305 25.7198C80.6564 24.7425 80.965 24.4338 81.2736 23.9709Z" fill="white"/>
<path fill-rule="evenodd" clip-rule="evenodd" d="M33.0251 83.486C31.4819 82.2 31.379 82.0971 30.4531 80.8112C32.4078 81.7885 34.414 82.663 36.4715 83.3317C38.0147 84.4119 38.0661 84.4633 39.6608 85.0806C37.3974 84.7205 35.1855 84.2062 33.0251 83.486Z" fill="white"/>
<path fill-rule="evenodd" clip-rule="evenodd" d="M29.3712 78.6508C29.1654 77.7764 28.9596 76.8505 28.9082 75.9246C28.9082 75.513 28.9082 75.153 28.9596 74.7415C30.5028 76.1818 32.0974 77.4677 33.7435 78.6508C33.7949 78.7023 33.7949 78.908 33.7949 78.9595C33.7949 79.0624 33.8464 79.1652 33.8464 79.2681C33.8978 79.4739 33.9493 79.6796 34.0007 79.8854C34.1036 80.2969 34.2579 80.7084 34.4637 81.0685C34.5665 81.2743 34.7209 81.5314 34.8752 81.7372C33.0234 80.8627 31.1715 79.8339 29.3712 78.6508Z" fill="white"/>
<path fill-rule="evenodd" clip-rule="evenodd" d="M22.8388 79.0108C21.7585 76.9532 21.7071 76.6446 21.2441 74.7928C22.9416 76.2331 24.742 77.5191 26.6453 78.7022C27.6226 80.554 27.6741 80.8626 28.8572 82.1486C26.7482 81.2227 24.742 80.1939 22.8388 79.0108Z" fill="white"/>
<path fill-rule="evenodd" clip-rule="evenodd" d="M29.5781 71.8093C30.504 69.2888 30.5555 69.1345 31.8415 66.974C32.9217 68.7744 34.0019 70.4719 35.1336 72.1179C34.1048 74.4327 34.0533 74.5356 33.7447 76.2845C32.3044 74.8957 30.9155 73.4039 29.5781 71.8093Z" fill="white"/>
<path fill-rule="evenodd" clip-rule="evenodd" d="M20.9355 71.7065C21.1413 69.083 21.1413 68.9287 21.81 66.6654C23.1474 68.4658 24.5363 70.1633 25.9766 71.7065C25.668 74.1241 25.668 74.2784 25.8737 76.0788C24.1248 74.7928 22.4787 73.3011 20.9355 71.7065Z" fill="white"/>
<path fill-rule="evenodd" clip-rule="evenodd" d="M34.2578 63.5277C36.3154 60.9557 36.624 60.5956 38.8359 58.2294C39.4532 60.287 40.0705 62.2931 40.7392 64.2478C38.733 66.5626 38.373 67.0256 36.9327 69.0831C36.0068 67.2828 35.1323 65.4824 34.2578 63.5277Z" fill="white"/>
<path fill-rule="evenodd" clip-rule="evenodd" d="M13.9408 72.0664C13.375 69.443 13.375 69.0314 13.375 66.7167C14.7638 68.5171 16.307 70.2146 17.9016 71.7577C18.3131 74.3297 18.3131 74.6383 19.1361 76.4902C17.2843 75.1527 15.5354 73.661 13.9408 72.0664Z" fill="white"/>
<path fill-rule="evenodd" clip-rule="evenodd" d="M23.3008 63.0648C24.9468 60.0299 25.0497 59.8756 26.953 57.3036C27.8274 59.3612 28.8048 61.3673 29.8336 63.2706C28.0332 66.0997 27.9303 66.254 27.0044 68.5174C25.667 66.7684 24.4324 64.9681 23.3008 63.0648Z" fill="white"/>
<path fill-rule="evenodd" clip-rule="evenodd" d="M13.8379 62.9619C14.7124 59.8755 14.7638 59.6698 15.9469 56.9949C16.9757 59.0525 18.0559 61.0072 19.2905 62.9105C18.3131 65.8939 18.2102 66.0483 17.9016 68.363C16.4613 66.717 15.0724 64.8652 13.8379 62.9619Z" fill="white"/>
<path fill-rule="evenodd" clip-rule="evenodd" d="M30.1953 53.3426C32.8187 50.462 33.2302 50.0505 35.9051 47.4271C36.4709 49.639 37.0367 51.8509 37.654 54.0114C35.1335 56.6348 34.6191 57.2006 32.5615 59.5668C31.7385 57.5607 30.9155 55.4517 30.1953 53.3426Z" fill="white"/>
<path fill-rule="evenodd" clip-rule="evenodd" d="M6.89258 63.4763C6.89258 60.3385 6.89258 59.7212 7.40697 56.9949C8.38432 59.0525 9.51599 61.0586 10.7505 62.9619C10.5962 65.9968 10.5448 66.6141 10.9048 68.9289C9.41311 67.2828 8.07568 65.431 6.89258 63.4763Z" fill="white"/>
<path fill-rule="evenodd" clip-rule="evenodd" d="M18.209 52.9311C20.4723 49.5361 20.6266 49.3303 22.9928 46.5526C23.6616 48.7645 24.4331 50.9764 25.2047 53.1369C22.7356 56.3775 22.5813 56.5833 21.0896 59.1553C20.0608 57.0977 19.0835 55.0401 18.209 52.9311Z" fill="white"/>
<path fill-rule="evenodd" clip-rule="evenodd" d="M8.58984 52.8281C10.0301 49.3816 10.133 49.1759 11.7791 46.2953C12.3964 48.5586 13.1679 50.7191 14.0939 52.8795C12.4992 56.2231 12.3964 56.4288 11.5733 59.1037C10.3902 57.0461 9.41287 54.9885 8.58984 52.8281Z" fill="white"/>
<path fill-rule="evenodd" clip-rule="evenodd" d="M26.9023 42.2316C29.9887 39.1453 30.4002 38.7337 33.3323 36.0589C33.7952 38.3737 34.3096 40.637 34.824 42.9003C31.8405 45.7295 31.2233 46.3468 28.7542 48.9702C28.0855 46.7583 27.4682 44.5464 26.9023 42.2316Z" fill="white"/>
<path fill-rule="evenodd" clip-rule="evenodd" d="M2.05859 52.7252C2.62443 49.2788 2.67587 49.073 3.60177 46.141C4.11617 48.4043 4.73344 50.6677 5.55647 52.8281C4.78488 56.2231 4.78488 56.4289 4.63056 59.1552C3.65321 57.0461 2.77874 54.9371 2.05859 52.7252Z" fill="white"/>
<path fill-rule="evenodd" clip-rule="evenodd" d="M14.7109 41.8202C17.18 38.6824 17.643 38.0137 20.3178 35.1331C20.3693 35.5446 20.4721 36.0075 20.5236 36.419C20.8837 38.2709 21.2952 40.1741 21.7581 42.0259C19.0833 45.1637 18.6203 45.7296 16.6142 48.5587C15.8426 46.3468 15.2253 44.1349 14.7109 41.8202Z" fill="white"/>
<path fill-rule="evenodd" clip-rule="evenodd" d="M73.043 31.1207C75.4606 29.2689 75.6664 29.1146 77.4668 27.6743C77.6211 28.3944 77.7754 29.1146 77.9297 29.8347C78.2383 31.4293 78.4441 32.9725 78.5984 34.5671C76.2322 36.3161 76.1293 36.3675 73.7117 38.065C73.6088 35.7502 73.403 33.4355 73.043 31.1207Z" fill="white"/>
<path fill-rule="evenodd" clip-rule="evenodd" d="M37.8086 32.0981C41.2036 29.269 41.5637 28.9603 44.65 26.5941C44.9072 27.8287 45.1644 29.1146 45.3702 30.4521C45.5759 31.4294 45.7303 32.4068 45.8846 33.4356C42.7982 35.9561 41.9237 36.6248 39.146 39.0424C38.6831 36.7277 38.2715 34.4129 37.8086 32.0981Z" fill="white"/>
<path fill-rule="evenodd" clip-rule="evenodd" d="M5.50391 41.6146C7.4586 38.0653 7.56148 37.8595 9.61906 34.9275C9.77337 36.7279 10.0306 38.6311 10.3906 40.4829C10.4421 40.8945 10.545 41.306 10.6478 41.666C8.48739 45.2668 8.38451 45.4726 7.09853 48.3532C6.58413 46.6042 6.12118 44.8038 5.81254 43.0035C5.65822 42.592 5.60678 42.129 5.50391 41.6146Z" fill="white"/>
<path fill-rule="evenodd" clip-rule="evenodd" d="M61.8301 26.4912C63.6305 25.1538 65.4823 23.8678 67.2827 22.5304C67.8485 24.5365 68.3629 26.6455 68.7744 28.8574C68.7744 28.9603 68.8258 29.0632 68.8258 29.1661C66.0995 31.1722 66.3053 30.9665 63.2189 33.2298C63.0132 31.6866 62.5502 30.4006 62.293 28.9089C62.1387 28.0344 61.9844 27.2628 61.8301 26.4912Z" fill="white"/>
<path fill-rule="evenodd" clip-rule="evenodd" d="M24.5879 30.8635C27.88 27.88 28.2915 27.4685 31.3779 24.948C31.6865 27.0056 32.0466 29.166 32.4581 31.4294C29.2174 34.3614 28.6516 34.8758 25.8224 37.6535C25.6167 36.7276 25.4624 35.8017 25.2566 34.8758C25.0508 33.5384 24.7936 32.2009 24.5879 30.8635Z" fill="white"/>
<path fill-rule="evenodd" clip-rule="evenodd" d="M49.0215 23.3021C52.2622 20.9359 52.4165 20.8331 55.1942 18.8784C55.8115 20.8331 56.3259 22.8906 56.8403 25.0511C54.0625 27.1087 53.1366 27.7774 50.4103 29.8864C50.4103 29.8349 50.4103 29.7835 50.3589 29.7835C49.9474 27.4687 49.4844 25.3083 49.0215 23.3021Z" fill="white"/>
<path fill-rule="evenodd" clip-rule="evenodd" d="M52.1074 33.847C55.2967 31.5322 55.451 31.4293 58.1773 29.4746C58.7431 31.3779 59.3089 33.4354 59.7719 35.5959C57.0456 37.602 56.1197 38.2707 53.3934 40.3798C53.3934 40.3283 53.3934 40.2769 53.342 40.2769C52.9819 38.0135 52.5704 35.9045 52.1074 33.847Z" fill="white"/>
<path fill-rule="evenodd" clip-rule="evenodd" d="M63.9395 37.9107C65.7913 36.4704 67.6431 35.0301 69.4949 33.5383C70.0607 35.6988 70.5751 38.0136 70.9866 40.3798C70.9866 40.4826 71.0381 40.5855 71.0381 40.6884C68.2604 42.9003 68.4661 42.6431 65.3283 45.1122C65.1226 43.4661 64.6596 42.0258 64.4024 40.3798C64.2481 39.5567 64.0938 38.7337 63.9395 37.9107Z" fill="white"/>
<path fill-rule="evenodd" clip-rule="evenodd" d="M13.0645 30.6578C15.8936 27.6229 16.3051 27.16 19.1857 24.4851C19.2372 26.4912 19.3915 28.5488 19.6487 30.7093C16.3051 34.1557 16.0994 34.3615 13.7846 37.2421C13.4245 34.9787 13.2188 32.7668 13.0645 30.6578Z" fill="white"/>
<path fill-rule="evenodd" clip-rule="evenodd" d="M70.3184 20.267C72.1702 18.8782 72.5817 18.5181 73.8162 17.4379C74.7421 19.2897 75.6166 21.2444 76.2853 23.3534C74.4335 24.8966 74.2792 24.948 72.2216 26.5941C71.7072 24.3307 71.0385 22.2217 70.3184 20.267Z" fill="white"/>
<path fill-rule="evenodd" clip-rule="evenodd" d="M35.9043 21.3989C39.2993 18.8784 39.5565 18.6726 42.4885 16.6151C42.9 18.4154 43.363 20.3701 43.7745 22.3763C40.6367 24.7425 39.8651 25.3083 36.9845 27.6231C36.6244 25.4112 36.2644 23.3536 35.9043 21.3989Z" fill="white"/>
<path fill-rule="evenodd" clip-rule="evenodd" d="M5.09188 30.6577C7.45809 27.3142 7.56097 27.1598 9.87574 24.5364C9.61855 26.4911 9.46423 28.4973 9.46423 30.6063C6.89226 34.0527 6.73794 34.2585 5.04044 37.0876C4.88612 34.9272 4.93756 32.7667 5.09188 30.6577Z" fill="white"/>
<path fill-rule="evenodd" clip-rule="evenodd" d="M58.8457 16.3063C61.3148 14.6088 61.8292 14.2487 63.4238 13.0656C64.3497 14.7117 65.1727 16.5635 65.8929 18.4667C64.1954 19.7013 62.4465 20.9358 60.749 22.1704C60.1831 20.1128 59.5659 18.1581 58.8457 16.3063Z" fill="white"/>
<path fill-rule="evenodd" clip-rule="evenodd" d="M23.6621 20.6784C27.0057 18.0036 27.3657 17.7464 30.3492 15.5345C30.5035 17.232 30.6579 19.0324 30.9151 20.9871C27.7773 23.5076 27.0057 24.1249 24.1251 26.6454C23.8679 24.5364 23.7135 22.5302 23.6621 20.6784Z" fill="white"/>
<path fill-rule="evenodd" clip-rule="evenodd" d="M46.5527 13.8371C49.3305 11.9853 49.3305 11.9853 51.9539 10.2364C52.674 11.7281 53.3427 13.3742 54.0114 15.1746C51.4395 16.9235 50.565 17.5408 48.0959 19.2897C47.5815 17.335 47.0671 15.4832 46.5527 13.8371Z" fill="white"/>
<path fill-rule="evenodd" clip-rule="evenodd" d="M13.5788 20.7299C16.4595 18.055 16.9224 17.6435 19.7516 15.3802C19.4944 17.0262 19.3401 18.7752 19.2372 20.627C15.8422 23.6105 15.585 23.8677 13.0645 26.4911C13.1159 24.485 13.2702 22.5817 13.5788 20.7299Z" fill="white"/>
<path fill-rule="evenodd" clip-rule="evenodd" d="M65.791 11.3165C67.1284 10.2363 67.3856 10.0305 68.1572 9.20752C69.4432 10.6478 70.6778 12.191 71.758 13.8885C70.472 15.0202 70.3177 15.1745 68.6716 16.409C67.7971 14.6087 66.8198 12.8597 65.791 11.3165Z" fill="white"/>
<path fill-rule="evenodd" clip-rule="evenodd" d="M34.5664 12.4997C37.6528 10.3906 37.8585 10.2878 40.4305 8.59027C40.842 9.97913 41.2535 11.4709 41.665 13.1169C38.8359 15.0716 38.0643 15.586 35.338 17.5407C35.0294 15.7918 34.7722 14.0943 34.5664 12.4997Z" fill="white"/>
<path fill-rule="evenodd" clip-rule="evenodd" d="M7.20204 20.9357C9.56825 18.3123 9.87689 17.9007 12.2431 15.6888C11.5744 17.2835 11.0086 19.0324 10.5456 20.8328C7.81931 23.8163 7.61356 24.0735 5.60742 26.6454C6.01894 24.6393 6.53333 22.736 7.20204 20.9357Z" fill="white"/>
<path fill-rule="evenodd" clip-rule="evenodd" d="M54.8867 8.23029C56.6871 6.99574 57.0986 6.73854 58.3332 5.86407C59.4648 7.09862 60.545 8.43604 61.5224 9.92778C59.5163 11.3681 59.5163 11.3681 57.3558 12.8598C56.5842 11.1623 55.7612 9.61915 54.8867 8.23029Z" fill="white"/>
<path fill-rule="evenodd" clip-rule="evenodd" d="M23.9714 12.1912C27.0578 10.0307 27.4178 9.77355 30.0412 8.07605C29.9898 9.36203 30.0412 10.7509 30.0927 12.2941C27.1092 14.4031 26.3891 14.9175 23.6113 17.0779C23.6628 15.329 23.8171 13.6829 23.9714 12.1912Z" fill="white"/>
<path fill-rule="evenodd" clip-rule="evenodd" d="M43.877 6.4815C45.2658 5.60703 46.7061 4.73256 48.095 3.85809C48.918 4.88688 49.6896 6.06999 50.4612 7.40741C47.3234 9.41354 46.7576 9.82506 45.4716 10.5966C44.9572 9.10491 44.3913 7.71605 43.877 6.4815Z" fill="white"/>
<path fill-rule="evenodd" clip-rule="evenodd" d="M15.9449 12.4481C18.7226 10.2877 19.1341 9.97903 21.7575 8.17865C21.1917 9.41319 20.7287 10.7506 20.3687 12.2424C17.4366 14.5057 16.8708 14.9686 14.2988 17.1805C14.7618 15.5345 15.2762 13.9399 15.9449 12.4481Z" fill="white"/>
<path fill-rule="evenodd" clip-rule="evenodd" d="M33.7441 5.76125C36.419 4.16663 36.5219 4.11519 38.5794 2.98352C38.9395 3.85799 39.2996 4.88678 39.6597 6.06988C37.2935 7.51018 36.5733 7.97314 34.1557 9.51632C34.0013 8.12746 33.847 6.89291 33.7441 5.76125Z" fill="white"/>
<path fill-rule="evenodd" clip-rule="evenodd" d="M25.5145 5.8126C28.1893 4.21798 28.4465 4.06366 30.607 2.88055C30.4012 3.65214 30.2469 4.62949 30.144 5.70972C27.6235 7.2529 26.9033 7.71585 24.3828 9.41335C24.7429 8.02449 25.103 6.84139 25.5145 5.8126Z" fill="white"/>
<path d="M156.118 89.2987H155.192V91.8707H154.678V89.2987H153.752V88.8872H156.17V89.2987H156.118ZM159.976 91.8707H159.462V89.2987L158.433 91.8707H158.176L157.198 89.2987V91.8707H156.684V88.8872H157.456L158.33 90.9962L159.205 88.8872H159.976V91.8707Z" fill="white"/>
<path d="M45.5234 108.691V106.891H47.4781V92.4879H45.5234V90.6876H59.4635V95.5743H57.3545V92.4879H49.8443V98.1977H56.1199V100.204H49.8443V106.891H57.3031V103.342H59.4121V108.691H45.5234Z" fill="white"/>
<path d="M70.8321 92.3852H68.9288V90.6363H72.9925V106.943H74.7415V108.692H70.8321V107.303C70.2663 107.868 69.7004 108.331 69.0832 108.589C68.4659 108.846 67.7457 109 66.9227 109C65.1738 109 63.7335 108.434 62.6018 107.303C61.4701 106.171 60.9043 104.731 60.9043 102.982C60.9043 101.284 61.4701 99.8439 62.6018 98.6608C63.7335 97.4777 65.1223 96.9119 66.8198 96.9119C67.6428 96.9119 68.363 97.0662 69.0317 97.3234C69.7004 97.5806 70.3177 98.0436 70.8835 98.6094V92.3852H70.8321ZM63.1676 102.93C63.1676 104.165 63.5277 105.142 64.2993 105.965C65.0709 106.788 65.9968 107.148 67.077 107.148C68.2087 107.148 69.1346 106.737 69.8547 105.965C70.5749 105.142 70.9864 104.165 70.9864 102.93C70.9864 101.696 70.6263 100.718 69.8547 99.8954C69.1346 99.1238 68.1572 98.7123 67.077 98.7123C65.9454 98.7123 64.968 99.1238 64.2479 99.8954C63.5277 100.718 63.1676 101.696 63.1676 102.93Z" fill="white"/>
<path d="M77.5185 98.9181H75.7695V97.2206H79.6789V104.113C79.6789 105.297 79.8332 106.12 80.1419 106.48C80.4505 106.84 80.9649 107.046 81.6851 107.046C82.3023 107.046 82.8682 106.891 83.4854 106.583C84.0513 106.274 84.6685 105.76 85.2858 105.091V98.9695H83.5369V97.2206H87.4463V106.943H89.1952V108.692H85.2858V107.046C84.6171 107.714 83.9484 108.229 83.2282 108.537C82.5595 108.846 81.8394 109 81.0678 109C79.8332 109 78.9073 108.692 78.3415 108.023C77.7757 107.354 77.467 106.325 77.467 104.885V98.9181H77.5185Z" fill="white"/>
<path d="M100.307 105.348L101.438 106.48C100.821 107.303 100.049 107.92 99.175 108.331C98.3005 108.743 97.3232 108.949 96.243 108.949C94.494 108.949 93.1052 108.383 92.0764 107.303C91.0476 106.222 90.5332 104.782 90.5332 102.93C90.5332 101.13 91.0476 99.6381 92.0249 98.5065C93.0023 97.3748 94.3397 96.809 95.9858 96.809C96.7059 96.809 97.3746 96.9118 97.9405 97.169C98.5063 97.3748 99.0207 97.7349 99.4836 98.2493V97.2205H101.181V101.181H99.638C99.3293 100.358 98.8664 99.741 98.3005 99.3295C97.7347 98.918 97.0146 98.7122 96.243 98.7122C95.2142 98.7122 94.3912 99.1237 93.7224 99.8953C93.1052 100.667 92.7965 101.747 92.7965 103.033C92.7965 104.371 93.1566 105.348 93.8253 106.119C94.494 106.84 95.4714 107.251 96.6545 107.251C97.3746 107.251 97.9919 107.097 98.6092 106.788C99.175 106.428 99.7408 105.965 100.307 105.348Z" fill="white"/>
<path d="M114.966 106.942H116.715V108.691H112.805V107.148C112.342 107.765 111.777 108.177 111.056 108.486C110.336 108.794 109.616 108.949 108.742 108.949C107.096 108.949 105.655 108.383 104.524 107.2C103.392 106.068 102.826 104.628 102.826 102.93C102.826 101.233 103.392 99.7923 104.524 98.6092C105.655 97.4261 107.044 96.8603 108.742 96.8603C109.565 96.8603 110.336 97.0146 111.005 97.3232C111.674 97.6319 112.291 98.0948 112.805 98.6607V97.2204H116.715V98.9693H114.966V106.942ZM105.141 102.93C105.141 104.165 105.501 105.142 106.273 105.965C107.044 106.788 107.97 107.148 109.05 107.148C110.182 107.148 111.108 106.737 111.828 105.965C112.548 105.142 112.96 104.165 112.96 102.93C112.96 101.696 112.6 100.718 111.828 99.8952C111.108 99.1236 110.131 98.7121 109.05 98.7121C107.919 98.7121 106.941 99.1236 106.221 99.8952C105.501 100.718 105.141 101.696 105.141 102.93Z" fill="white"/>
<path d="M121.704 104.628V104.988C121.704 105.914 121.807 106.479 121.962 106.634C122.116 106.839 122.476 106.942 123.042 106.942C123.145 106.942 123.402 106.891 123.813 106.839H123.916V108.64C123.659 108.691 123.402 108.691 123.145 108.743C122.887 108.794 122.527 108.794 122.167 108.794C121.241 108.794 120.573 108.64 120.213 108.331C119.853 108.023 119.698 107.457 119.698 106.634V98.9693H117.641V97.2203H119.698V92.9509H121.704V97.2203H123.968V98.9693H121.704V104.628Z" fill="white"/>
<path d="M129.473 106.942H131.479V108.691H125.357V106.942H127.364V98.9178H125.357V97.2203H129.473V106.942ZM126.386 94.3911V92.0764H129.473V94.3911H126.386Z" fill="white"/>
<path d="M132.404 102.93C132.404 101.232 133.022 99.7922 134.205 98.6605C135.388 97.5288 136.88 96.9116 138.68 96.9116C140.48 96.9116 141.972 97.4774 143.155 98.6605C144.338 99.7922 144.955 101.232 144.955 102.93C144.955 104.627 144.338 106.068 143.155 107.251C141.972 108.383 140.48 109 138.68 109C136.88 109 135.388 108.434 134.205 107.251C133.022 106.068 132.404 104.627 132.404 102.93ZM134.668 102.93C134.668 104.165 135.079 105.142 135.851 105.965C136.622 106.788 137.6 107.148 138.731 107.148C139.914 107.148 140.84 106.736 141.612 105.965C142.384 105.193 142.744 104.165 142.744 102.93C142.744 101.695 142.384 100.667 141.612 99.895C140.84 99.1235 139.863 98.7119 138.731 98.7119C137.6 98.7119 136.622 99.1235 135.851 99.895C135.028 100.718 134.668 101.695 134.668 102.93Z" fill="white"/>
<path d="M158.228 106.942H159.976V108.691H154.318V106.942H156.067V101.799C156.067 100.615 155.913 99.7924 155.604 99.4323C155.295 99.0723 154.781 98.8665 154.061 98.8665C153.444 98.8665 152.878 99.0208 152.312 99.3295C151.746 99.6381 151.129 100.152 150.46 100.821V106.942H152.209V108.691H146.551V106.942H148.3V98.918H146.551V97.2205H150.46V98.8665C151.129 98.1978 151.798 97.7348 152.466 97.4262C153.135 97.1176 153.855 96.9633 154.627 96.9633C155.295 96.9633 155.861 97.0661 156.376 97.3233C156.89 97.5805 157.302 97.8892 157.662 98.3521C157.867 98.6093 158.022 98.9179 158.125 99.2266C158.228 99.5352 158.279 100.05 158.279 100.667V101.078V106.942H158.228Z" fill="white"/>
<path d="M59.824 85.1322H57.8178V83.1775C56.9434 84.0006 56.0174 84.5664 55.0915 84.9265C54.1656 85.2865 53.1368 85.4923 52.0052 85.4923C49.3303 85.4923 47.1184 84.6178 45.3695 82.8174C43.6206 81.0171 42.7461 78.8052 42.7461 76.1303C42.7461 73.4555 43.6206 71.1922 45.3695 69.4432C47.1184 67.6943 49.3303 66.7684 52.0052 66.7684C53.034 66.7684 54.0113 66.9741 54.9372 67.3342C55.8631 67.6943 56.6862 68.2601 57.4577 68.9803V67.1284H59.4639V73.3526H57.8178C57.3549 71.9123 56.6862 70.7806 55.7088 70.0091C54.7315 69.2375 53.4969 68.8774 52.0566 68.8774C50.1019 68.8774 48.4559 69.5461 47.1699 70.935C45.8839 72.3238 45.2152 74.0213 45.2152 76.1303C45.2152 78.2393 45.8839 79.9368 47.1699 81.3257C48.4559 82.7146 50.1019 83.3833 52.0566 83.3833C53.5484 83.3833 54.7829 83.0232 55.7603 82.2516C56.7376 81.48 57.4577 80.4512 57.9207 79.0109H53.394V77.0562H61.933V79.0109H59.9268V85.1322H59.824Z" fill="white"/>
<path d="M65.0706 68.8772H63.0645V67.1283H67.1796V83.4346H69.1857V85.1835H63.0645V83.4346H65.0706V68.8772Z" fill="white"/>
<path d="M70.2656 79.3711C70.2656 77.6736 70.8829 76.2333 72.066 75.1016C73.2491 73.9699 74.7408 73.3527 76.5412 73.3527C78.3416 73.3527 79.8333 73.9185 81.0164 75.1016C82.1996 76.2333 82.8168 77.6736 82.8168 79.3711C82.8168 81.0686 82.1996 82.5089 81.0164 83.692C79.8333 84.8751 78.3416 85.4409 76.5412 85.4409C74.7408 85.4409 73.2491 84.8751 72.066 83.692C70.8829 82.5089 70.2656 81.0686 70.2656 79.3711ZM72.4775 79.3711C72.4775 80.6056 72.889 81.583 73.6606 82.406C74.4322 83.229 75.4096 83.5891 76.5412 83.5891C77.7243 83.5891 78.6502 83.1776 79.4218 82.406C80.1934 81.6344 80.5535 80.6056 80.5535 79.3711C80.5535 78.1365 80.1934 77.1077 79.4218 76.3361C78.6502 75.5645 77.6729 75.153 76.5412 75.153C75.4096 75.153 74.4322 75.5645 73.6606 76.3361C72.889 77.1077 72.4775 78.188 72.4775 79.3711Z" fill="white"/>
<path d="M84.2578 68.8772V67.1283H88.1672V75.05C88.733 74.4841 89.3503 74.0212 90.019 73.764C90.6877 73.5068 91.4079 73.3525 92.2309 73.3525C93.877 73.3525 95.3173 73.9183 96.4489 75.1014C97.5806 76.2845 98.1464 77.6734 98.1464 79.4223C98.1464 81.1198 97.5806 82.5601 96.4489 83.7432C95.3173 84.8749 93.877 85.4407 92.128 85.4407C91.305 85.4407 90.5848 85.2864 89.9676 85.0292C89.3503 84.772 88.7845 84.3605 88.2186 83.7432V85.1321H84.3092V83.3831H86.0582V68.8258H84.2578V68.8772ZM88.0643 79.4223C88.0643 80.6568 88.4244 81.6342 89.196 82.4572C89.9161 83.2803 90.8935 83.6403 91.9737 83.6403C93.1054 83.6403 94.0313 83.2288 94.8029 82.4572C95.5745 81.6856 95.9345 80.6568 95.9345 79.4223C95.9345 78.1878 95.5745 77.159 94.8029 76.3874C94.0827 75.6158 93.1054 75.2043 91.9737 75.2043C90.8421 75.2043 89.9161 75.6158 89.196 76.3874C88.4244 77.159 88.0643 78.1878 88.0643 79.4223Z" fill="white"/>
<path d="M111.675 83.4348H113.424V85.1837H109.514V83.6405C109.051 84.2578 108.486 84.6693 107.765 84.978C107.045 85.2866 106.325 85.4409 105.451 85.4409C103.805 85.4409 102.364 84.8751 101.233 83.692C100.101 82.5089 99.5352 81.12 99.5352 79.4225C99.5352 77.725 100.101 76.2847 101.233 75.1016C102.364 73.9185 103.753 73.3527 105.451 73.3527C106.274 73.3527 107.045 73.507 107.714 73.8156C108.383 74.1242 109 74.5872 109.514 75.153V73.6613H113.424V75.4102H111.675V83.4348ZM101.85 79.4225C101.85 80.657 102.21 81.6344 102.982 82.4574C103.753 83.2805 104.679 83.6405 105.759 83.6405C106.891 83.6405 107.817 83.229 108.537 82.4574C109.257 81.6858 109.669 80.657 109.669 79.4225C109.669 78.188 109.309 77.2106 108.537 76.3876C107.765 75.5646 106.84 75.2045 105.759 75.2045C104.628 75.2045 103.65 75.616 102.93 76.3876C102.21 77.1592 101.85 78.188 101.85 79.4225Z" fill="white"/>
<path d="M116.819 68.8772H114.812V67.1283H118.928V83.4346H120.934V85.1835H114.812V83.4346H116.819V68.8772Z" fill="white"/>
<path d="M59.824 62.0872H57.8178V60.1325C56.9434 60.9556 56.0174 61.5214 55.0915 61.8815C54.1656 62.2416 53.1368 62.4473 52.0052 62.4473C49.3303 62.4473 47.1184 61.5728 45.3695 59.7725C43.6206 57.9721 42.7461 55.7602 42.7461 53.0854C42.7461 50.4105 43.6206 48.1472 45.3695 46.3982C47.1184 44.6493 49.3303 43.7234 52.0052 43.7234C53.034 43.7234 54.0113 43.9291 54.9372 44.2892C55.8631 44.6493 56.6862 45.2151 57.4577 45.9353V44.0835H59.4639V50.3076H57.8178C57.3549 48.8673 56.6862 47.7357 55.7088 46.9641C54.7315 46.1925 53.4969 45.8324 52.0566 45.8324C50.1019 45.8324 48.4559 46.5011 47.1699 47.89C45.8839 49.2788 45.2152 50.9763 45.2152 53.0854C45.2152 55.1944 45.8839 56.8919 47.1699 58.2807C48.4559 59.6696 50.1019 60.3383 52.0566 60.3383C53.5484 60.3383 54.7829 59.9782 55.7603 59.2066C56.7376 58.4865 57.4577 57.4063 57.9207 55.966H53.394V54.0113H61.933V55.966H59.9268V62.0872H59.824Z" fill="white"/>
<path d="M75.3584 60.3898H77.1074V62.1387H73.198V60.5955C72.735 61.2128 72.1692 61.6243 71.449 61.933C70.7803 62.2416 70.0087 62.3959 69.1343 62.3959C67.4882 62.3959 66.0479 61.8301 64.9162 60.647C63.7846 59.5153 63.2188 58.075 63.2188 56.3775C63.2188 54.68 63.7846 53.2397 64.9162 52.0566C66.0479 50.8735 67.4368 50.3077 69.1343 50.3077C69.9573 50.3077 70.7289 50.462 71.3976 50.7706C72.0663 51.0793 72.6836 51.5422 73.198 52.1081V50.6163H77.1074V52.3653H75.3584V60.3898ZM65.5335 56.3775C65.5335 57.6121 65.8936 58.5894 66.6652 59.4124C67.4368 60.2355 68.3627 60.5955 69.4429 60.5955C70.5746 60.5955 71.5005 60.184 72.2206 59.4124C72.9408 58.5894 73.3523 57.6121 73.3523 56.3775C73.3523 55.143 72.9922 54.1656 72.2206 53.3426C71.5005 52.571 70.5231 52.1595 69.4429 52.1595C68.3112 52.1595 67.3339 52.571 66.6137 53.3426C65.8936 54.1142 65.5335 55.143 65.5335 56.3775Z" fill="white"/>
<path d="M80.5022 45.8326H78.4961V44.0837H82.6112V60.39H84.6174V62.1389H78.4961V60.39H80.5022V45.8326Z" fill="white"/>
<path d="M89.7109 60.3898H91.717V62.1388H85.5957V60.3898H87.6018V52.3653H85.5957V50.6163H89.7109V60.3898ZM86.6245 47.7872V45.4724H89.7109V47.7872H86.6245Z" fill="white"/>
<path d="M94.4436 45.8326H92.4375V44.0837H96.5526V60.39H98.5588V62.1389H92.4375V60.39H94.4436V45.8326Z" fill="white"/>
<path d="M111.521 58.6923C111.007 59.824 110.235 60.7499 109.155 61.4186C108.126 62.0873 106.943 62.3959 105.657 62.3959C103.857 62.3959 102.365 61.8301 101.285 60.6984C100.153 59.5668 99.6387 58.075 99.6387 56.2232C99.6387 54.4228 100.205 52.9825 101.285 51.9023C102.416 50.8221 103.857 50.3077 105.709 50.3077C107.509 50.3077 109.001 50.8735 110.132 52.0566C111.264 53.2397 111.83 54.7829 111.83 56.6862V56.9434H101.851C101.953 58.0236 102.365 58.8981 103.137 59.5668C103.908 60.2355 104.834 60.5441 106.017 60.5441C106.737 60.5441 107.406 60.3898 108.023 60.0297C108.641 59.7211 109.155 59.2067 109.515 58.6409H111.521V58.6923ZM101.851 55.3487H109.566C109.412 54.3199 109.001 53.4969 108.332 52.9311C107.663 52.3653 106.789 52.1081 105.709 52.1081C104.628 52.1081 103.754 52.3653 103.085 52.9311C102.416 53.4969 102.005 54.2685 101.851 55.3487Z" fill="white"/>
<path d="M113.219 56.3261C113.219 54.6286 113.836 53.1883 115.019 52.0566C116.202 50.9249 117.694 50.3077 119.494 50.3077C121.295 50.3077 122.786 50.8735 123.97 52.0566C125.153 53.1883 125.77 54.6286 125.77 56.3261C125.77 58.0236 125.153 59.4639 123.97 60.647C122.786 61.8301 121.295 62.3959 119.494 62.3959C117.694 62.3959 116.202 61.8301 115.019 60.647C113.836 59.4639 113.219 58.075 113.219 56.3261ZM115.482 56.3261C115.482 57.5606 115.894 58.538 116.665 59.361C117.437 60.184 118.414 60.5441 119.546 60.5441C120.729 60.5441 121.655 60.1326 122.426 59.361C123.198 58.5894 123.558 57.5606 123.558 56.3261C123.558 55.0915 123.198 54.0627 122.426 53.2912C121.655 52.5196 120.677 52.1081 119.546 52.1081C118.414 52.1081 117.437 52.5196 116.665 53.2912C115.842 54.1142 115.482 55.143 115.482 56.3261Z" fill="white"/>
</g>
</svg>
