<svg xmlns="http://www.w3.org/2000/svg" id="Calque_1" width="116" height="224" data-name="Calque 1" version="1.1" viewBox="0 0 167 224"><defs><style>.cls-1{fill:#fff;stroke-width:0}</style></defs><path d="M90.9 60.8h14.7v44.1H90.9zM120.9 149.1H165v14.7h-44.1zM143 105.7c13.3 0 24.1-10.8 24.1-24.1S156.3 57.5 143 57.5s-24.1 10.8-24.1 24.1 10.8 24.1 24.1 24.1Zm0-34.7c5.9 0 10.7 4.8 10.7 10.7s-4.8 10.7-10.7 10.7-10.7-4.8-10.7-10.7S137.1 71 143 71ZM120.9 2h14.7v44.1h-14.7zM120.9 119.7H165v14.7h-44.1zM150.4 2h14.7v44.1h-14.7zM24.1 48.1c13.3 0 24.1-10.8 24.1-24.1S37.3 0 24.1 0 0 10.8 0 24.1s10.8 24.1 24.1 24.1Zm0-34.7c5.9 0 10.7 4.8 10.7 10.7S30 34.8 24.1 34.8 13.4 30 13.4 24.1s4.8-10.7 10.7-10.7ZM2 119.7h14.7v44.1H2zM116.5 193.2h8.5v30.3h-8.5zM2 90.2h44.1v14.7H2zM78.7 200H88l.1 23.5h8.5V200h9.2v-6.8H78.7v6.8zM150.1 200.7c1.3-.7 2.8-1.1 4.4-1.1 2.8 0 5.2 1.3 7.1 3.6l5.5-4.9c-1.5-1.8-3.3-3.2-5.5-4.2s-4.7-1.5-7.5-1.5-6 .7-8.5 2c-2.4 1.3-4.5 3.2-5.9 5.6s-2.2 5.1-2.2 8.1.7 5.8 2.2 8.1 3.4 4.3 5.9 5.6c2.5 1.3 5.4 2 8.5 1.9 2.8 0 5.2-.5 7.5-1.5 2.2-1 4.1-2.3 5.5-4.2l-5.5-4.9c-1.9 2.3-4.3 3.5-7.1 3.5s-3.1-.4-4.4-1.1c-1.3-.7-2.3-1.7-3-3.1-.7-1.3-1-2.8-1-4.5s.4-3.1 1-4.5c.7-1.3 1.7-2.3 3-3.1ZM61.5 60.8h14.7v44.1H61.5zM44.7 223.5h23.9v-6.7H53.1v-5.5h13.5V205H53.1v-5.1h15.5v-6.7H44.7v30.3zM2 60.9h44.1v14.7H2zM22.2 204.6H10.5v-11.4H2v30.3h8.5v-11.8h11.7v11.8h8.5v-30.3h-8.5v11.4zM31.4 119.7h14.7v44.1H31.4z" class="cls-1"/></svg>
