<svg version="1.1" id="Layer_1" xmlns="http://www.w3.org/2000/svg" x="0" y="0" viewBox="0 0 230.3 326.8" style="enable-background:new 0 0 230.3 326.8" xml:space="preserve"><style>.st0{fill:#e63b25}</style><path class="st0" d="M44.7 44.7h140.1l.2 92.1-18.5 48.1H44.7V44.7zM0 0v229.5h192.2l37.7-97.9L229.6 0H0zM13.4 256.4H0v69.4h42.7l.9-12H13.4zM49.6 256.5H63v69.4H49.6zM107.2 292.5c-3.7-3.4-8.4-5.9-12.7-8.2-6.3-3.3-11.8-6.2-11.8-10.6 0-2.2.9-3.9 2.8-5.1 1.8-1.1 4.5-1.7 8-1.7s9.7.9 14.2 2.6l.9.4 2.3-12.4-.8-.2c-4.6-1.3-11.4-2.1-17.3-2.1-6.6 0-12.5 1.9-16.7 5.2-4.5 3.6-6.8 8.6-6.8 14.6 0 10.9 9.4 15.9 17.7 20.3 3.4 1.8 6.6 3.5 8.9 5.4 2.5 2.1 3.6 4.2 3.6 6.6 0 5.6-5.4 7.6-10.5 7.6-4.8 0-11.8-1.5-16.8-5l-.9-.7-3.6 12 .5.3c4.6 3 13 5.1 20.9 5.1 6.9 0 12.9-1.9 17.3-5.5 4.5-3.7 6.9-8.9 6.9-15 .3-5.1-1.8-9.6-6.1-13.6zM203.5 256.4h-12l-20.1 52.3-20.2-52.3h-12l-26.7 69.4h13.1l7.1-19.2h23.8l7.2 19.2H178l7.1-19.2H209l7.2 19.2h14.1l-26.8-69.4zM137 295.2l7.1-19.1c.2-.7.4-1.4.6-2.2.2.8.4 1.6.7 2.3l7.1 19.1-15.5-.1zm52.3 0 7.1-19.1c.2-.7.4-1.4.6-2.2.2.8.4 1.6.7 2.3l7.1 19.1-15.5-.1z"/></svg>