<svg width="142" height="51" viewBox="0 0 142 51" fill="none" xmlns="http://www.w3.org/2000/svg">
  <g id="Group 111">
    <path id="Vector"
          d="M128.807 21.0405C131.697 21.0405 134.657 22.9703 134.657 26.8972C134.657 30.8241 131.697 32.7213 128.807 32.7213C125.917 32.7213 122.958 30.8241 122.958 26.8972C122.958 22.9703 125.917 21.0405 128.807 21.0405ZM128.807 30.4981C130.375 30.4981 131.558 29.2224 131.558 26.8993C131.558 24.5761 130.375 23.3005 128.807 23.3005C127.24 23.3005 126.056 24.5435 126.056 26.8993C126.056 29.255 127.24 30.4981 128.807 30.4981ZM106.318 21.0405C109.208 21.0405 112.167 22.9703 112.167 26.8972C112.167 30.8241 109.208 32.7213 106.318 32.7213C103.428 32.7213 100.468 30.8241 100.468 26.8972C100.468 22.9703 103.428 21.0405 106.318 21.0405ZM106.318 30.4981C107.885 30.4981 109.069 29.2224 109.069 26.8993C109.069 24.5761 107.885 23.3005 106.318 23.3005C104.75 23.3005 103.566 24.5435 103.566 26.8993C103.566 29.255 104.75 30.4981 106.318 30.4981ZM134.969 40.4793C133.854 40.4793 133.054 40.8726 133.054 41.5594C133.054 42.1483 133.508 42.6068 134.622 42.835L136.224 43.1631C138.592 43.6543 140.576 44.2432 140.576 46.5337C140.576 48.8242 138.139 50.1325 135.459 50.1325C132.534 50.1325 130.342 48.7264 130.063 46.173H132.987C133.161 47.253 133.963 48.0702 135.528 48.0702C136.851 48.0702 137.688 47.6117 137.688 46.7945C137.688 45.9774 136.747 45.6167 135.739 45.421L133.963 45.093C131.734 44.667 130.273 43.7847 130.273 41.755C130.273 39.7253 132.571 38.417 135.112 38.417C137.653 38.417 139.951 39.4971 140.335 42.0811H137.514C137.271 41.1314 136.365 40.4773 134.973 40.4773L134.969 40.4793ZM123.55 40.4793C122.4 40.4793 121.6 40.8726 121.6 41.5594C121.6 42.1483 122.088 42.6068 123.203 42.835L124.805 43.1631C127.172 43.6543 129.156 44.2432 129.156 46.5337C129.156 48.8242 126.719 50.1325 124.04 50.1325C121.115 50.1325 118.923 48.7264 118.608 46.173H121.568C121.741 47.253 122.544 48.0702 124.109 48.0702C125.397 48.0702 126.268 47.6117 126.268 46.7945C126.268 45.9774 125.327 45.6167 124.319 45.421L122.544 45.093C120.315 44.667 118.853 43.7847 118.853 41.755C118.853 39.7253 121.152 38.417 123.693 38.417C126.234 38.417 128.532 39.4971 128.916 42.0811H126.06C125.852 41.1314 124.946 40.4773 123.554 40.4773L123.55 40.4793ZM111.783 47.9072C112.724 47.9072 113.663 47.6117 114.29 46.6315H117.423C116.796 48.3005 115.055 50.1325 111.818 50.1325C108.024 50.1325 105.795 47.4813 105.795 44.2432C105.795 41.0051 108.232 38.4843 111.749 38.4843C115.265 38.4843 117.702 41.1355 117.563 45.095H108.791C108.965 46.9922 110.359 47.9092 111.786 47.9092L111.783 47.9072ZM108.859 43.0979H114.463C114.394 41.2333 113.002 40.5792 111.712 40.5792C110.563 40.5792 109.101 41.2333 108.856 43.0979H108.859ZM100.05 38.4843C102.905 38.4843 104.158 40.1207 104.158 42.8371V49.8717H101.129V43.4586C101.129 42.0179 100.78 40.7748 99.0762 40.7748C97.0577 40.7748 96.6046 42.3134 96.6046 44.0802V49.8717H93.5757V38.7125H96.6046V40.1859C97.3005 39.0732 98.5884 38.4843 100.052 38.4843H100.05ZM88.0384 34.8529V37.5041H91.0673V34.8529H88.0384ZM88.0384 38.7146V49.8737H91.0673V38.7146H88.0384ZM80.7623 40.4814C79.6132 40.4814 78.8479 40.8747 78.8479 41.5614C78.8479 42.1503 79.301 42.6088 80.4154 42.8371L82.0177 43.1652C84.3852 43.6563 86.369 44.2452 86.369 46.5357C86.369 48.8262 83.9321 50.1345 81.2523 50.1345C78.3276 50.1345 76.1356 48.7284 75.8213 46.175H78.7807C78.9541 47.2551 79.7563 48.0723 81.3217 48.0723C82.6442 48.0723 83.4811 47.6137 83.4811 46.7966C83.4811 45.9794 82.5402 45.6187 81.532 45.4231L79.7563 45.095C77.5275 44.6691 76.0662 43.7867 76.0662 41.757C76.0662 39.7274 78.3644 38.4191 80.9054 38.4191C83.4464 38.4191 85.7446 39.4991 86.1283 42.0831H83.3077C83.0648 41.1335 82.1586 40.4793 80.7667 40.4793L80.7623 40.4814ZM67.602 50.1345C64.7467 50.1345 63.5976 48.4982 63.5976 45.7817V38.7146H66.6611V45.1602C66.6611 46.6335 66.8692 47.844 68.6102 47.844C70.594 47.844 71.0818 46.2729 71.0818 44.5387V38.7146H74.1106V49.8737H71.0818V48.4003C70.3859 49.513 69.0633 50.1345 67.5999 50.1345H67.602ZM49.221 34.8529H55.4521C58.2727 34.8529 61.2669 35.6375 61.2669 38.7472C61.2669 40.1879 60.1178 41.431 59.2831 41.9221C60.5015 42.4784 61.8241 43.3954 61.8241 45.4231C61.8241 48.6958 59.0034 49.8737 55.6971 49.8737H49.221V34.8549V34.8529ZM52.3886 41.0377H55.6255C57.1215 41.0377 58.0278 40.3509 58.0278 39.0406C58.0278 37.8628 57.0868 37.176 55.6255 37.176H52.3886V41.0377ZM52.3886 47.5485H55.8705C57.6809 47.5485 58.6218 46.7966 58.6218 45.421C58.6218 44.0455 57.6809 43.2936 55.7317 43.2936H52.3886V47.5465V47.5485ZM140.99 17.4438H142V19.5387H141.408C139.912 19.5387 139.632 19.7017 139.632 20.7817V21.3054H142V23.2679H139.632V32.4625H136.604V23.2679H134.897V21.3054H136.604V20.6839C136.604 17.8697 137.996 17.4438 140.99 17.4438ZM113.557 17.4438V32.4625H116.62V17.4438H113.557ZM93.4695 21.0426C96.3596 21.0426 99.319 22.9724 99.319 26.8993C99.319 30.8262 96.3596 32.7234 93.4695 32.7234C90.5794 32.7234 87.62 30.8262 87.62 26.8993C87.62 22.9724 90.5794 21.0426 93.4695 21.0426ZM93.4695 30.5001C95.037 30.5001 96.2208 29.2244 96.2208 26.9013C96.2208 24.5782 95.037 23.3025 93.4695 23.3025C91.902 23.3025 90.7182 24.5456 90.7182 26.9013C90.7182 29.257 91.902 30.5001 93.4695 30.5001ZM81.8767 21.0426C84.7321 21.0426 85.9853 22.6789 85.9853 25.428V32.4625H82.9564V26.0495C82.9564 24.6088 82.6074 23.3657 80.9033 23.3657C78.8848 23.3657 78.4663 24.9042 78.4663 26.6384V32.4625H75.4028V17.4438H78.4663V22.7768C79.1276 21.6641 80.4501 21.0426 81.8789 21.0426H81.8767ZM73.9394 25.1325H71.0146C70.8065 24.0524 69.6921 23.2679 68.647 23.2679C67.2204 23.2679 65.9673 24.5435 65.9673 26.8667C65.9673 29.1898 67.1511 30.4981 68.6817 30.4981C69.6227 30.4981 70.7349 30.0069 71.1187 28.6661H74.0434C73.3475 31.7085 70.8758 32.7234 68.543 32.7234C65.1304 32.7234 62.8344 30.2698 62.8344 26.8993C62.8344 23.5287 65.2366 21.0426 68.6492 21.0426C71.0168 21.0426 73.5578 22.3508 73.9415 25.1325H73.9394ZM48.6985 21.5011C48.6985 18.426 52.0417 17.1483 55.0705 17.1483C58.3768 17.1483 61.1975 18.9803 61.3363 21.8597H58.3074C58.0646 20.0929 56.4277 19.5366 54.9296 19.5366C53.4314 19.5366 51.8314 20.0277 51.8314 21.4012C51.8314 22.4487 52.807 23.0702 54.0601 23.2658L56.1849 23.5939C58.7606 23.9872 61.6506 25 61.6506 28.1097C61.6506 31.2195 58.379 32.7234 55.1399 32.7234C51.2416 32.7234 48.6291 30.7263 48.3516 27.4882H51.3804C51.7295 29.7135 53.3642 30.3676 55.2786 30.3676C56.6705 30.3676 58.4462 29.8765 58.4462 28.2728C58.4462 26.9971 57.193 26.506 55.5214 26.2105L53.4683 25.8498C50.8926 25.3913 48.6985 24.1156 48.6985 21.497V21.5011ZM93.1573 5.66107C92.0082 5.66107 91.2429 6.05437 91.2429 6.74112C91.2429 7.33005 91.696 7.78856 92.8104 8.0168L94.4126 8.34489C96.7802 8.836 98.764 9.39233 98.764 11.7154C98.764 14.0386 96.327 15.3142 93.6473 15.3142C90.7225 15.3142 88.5306 13.9081 88.2162 11.3548H91.1757C91.3491 12.4348 92.1513 13.252 93.7167 13.252C95.0392 13.252 95.8761 12.7935 95.8761 11.9763C95.8761 11.1591 94.9351 10.7984 93.927 10.6028L92.1513 10.2421C89.9225 9.78359 88.4612 8.93382 88.4612 6.90415C88.4612 4.87447 90.7594 3.5988 93.3004 3.5988C95.8414 3.5988 98.1396 4.67884 98.5233 7.2628H95.7026C95.4598 6.31318 94.5535 5.65904 93.1616 5.65904L93.1573 5.66107ZM83.5483 0V2.65121H86.5771V0H83.5483ZM83.5483 3.89428V15.0534H86.5771V3.89428H83.5483ZM80.9379 6.57809C79.442 6.57809 78.4663 7.10181 78.4663 9.1967V15.0534H75.4028V3.89428H78.3969V5.8241C79.0929 4.48321 80.1726 3.92689 81.5298 3.92689C81.738 3.92689 82.0177 3.92689 82.1911 3.95949V6.6433C81.7727 6.6107 81.3911 6.57809 80.9379 6.57809ZM62.2425 12.0435C62.2425 9.39233 65.3754 8.60777 70.0411 8.11665V7.92102C70.0411 6.21944 69.0308 5.5979 67.8123 5.5979C66.5939 5.5979 65.6529 6.18683 65.6182 7.4299H62.7629C62.971 5.2046 64.9223 3.60083 67.9511 3.60083C70.7718 3.60083 73.0678 4.74609 73.0678 8.50995C73.0678 8.87064 73.0331 10.342 73.0331 11.3568C73.0331 13.1236 73.1719 14.1058 73.3822 15.0534H70.5962C70.4921 14.6927 70.4227 14.2036 70.388 13.6473C69.5533 14.8252 68.3002 15.3163 66.5245 15.3163C64.2263 15.3163 62.2425 14.0732 62.2425 12.0435ZM65.3754 11.8805C65.3754 12.6977 66.0367 13.3539 67.4286 13.3539C69.3083 13.3539 70.1083 12.4042 70.1083 10.7679V9.95069C66.7305 10.2788 65.3732 10.6374 65.3732 11.8805H65.3754ZM61.8588 4.97636C61.8588 8.83804 58.5871 9.95069 54.9317 9.95069H52.3907V15.0554H49.2231V0H54.8277C58.134 0 61.8609 0.45851 61.8609 4.97433L61.8588 4.97636ZM52.3886 2.32516V7.65814H55.103C57.0868 7.65814 58.6196 7.19963 58.6196 5.00693C58.6196 2.55339 56.6011 2.32312 54.8949 2.32312H52.3886V2.32516Z"
          fill="#233568"/>
    <g id="Group">
      <path id="Vector_2"
            d="M20.11 8.88911V1.12908C20.11 0.505502 19.5724 0.00012207 18.9089 0.00012207C18.2455 0.00012207 17.7078 0.505502 17.7078 1.12908V8.88911C17.7078 20.3233 14.6703 30.9913 9.15685 38.9266C7.56764 41.2151 5.81583 43.202 3.95344 44.8322C3.46779 45.2581 3.4396 45.9714 3.89273 46.4279C4.12905 46.6663 4.44993 46.7886 4.77297 46.7886C5.06567 46.7886 5.36053 46.6887 5.59034 46.4849C7.59583 44.7304 9.47339 42.6029 11.1688 40.1616C16.936 31.8615 20.1122 20.7554 20.1122 8.88707L20.11 8.88911Z"
            fill="#233568"/>
      <path id="Vector_3"
            d="M15.4728 8.88899V1.12895C15.4728 0.50538 14.9351 0 14.2717 0C13.6082 0 13.0706 0.50538 13.0706 1.12895V8.88899C13.0706 19.4857 10.3019 29.308 5.27411 36.5423C3.85184 38.5882 2.30599 40.3367 0.67776 41.7428C0.18994 42.1646 0.157419 42.8799 0.606213 43.3384C0.842535 43.5809 1.16775 43.7032 1.49079 43.7032C1.78132 43.7032 2.07184 43.6053 2.30383 43.4056C4.07949 41.8732 5.75542 39.9801 7.2861 37.7772C12.5654 30.1781 15.475 19.9197 15.475 8.88899H15.4728Z"
            fill="#233568"/>
      <path id="Vector_4"
            d="M37.1426 41.7429C35.5144 40.3388 33.9686 38.5884 32.5463 36.5424C27.5185 29.3081 24.7498 19.4858 24.7498 8.88911V1.12908C24.7498 0.505502 24.2122 0.00012207 23.5487 0.00012207C22.8853 0.00012207 22.3476 0.505502 22.3476 1.12908V8.88911C22.3476 16.8978 20.8993 24.7739 18.161 31.6679C15.5203 38.3132 11.7391 43.9336 7.22518 47.9175C6.74169 48.3455 6.71785 49.0587 7.17098 49.5131C7.4073 49.7495 7.72601 49.8698 8.04688 49.8698C8.34174 49.8698 8.6366 49.7679 8.86859 49.5641C12.8449 46.0549 16.2726 41.3741 18.9068 35.8903C21.5411 41.372 24.9797 46.0631 28.9473 49.5641C29.1792 49.7699 29.4741 49.8698 29.769 49.8698C30.0898 49.8698 30.4086 49.7495 30.6449 49.5131C31.1002 49.0587 31.0763 48.3434 30.5907 47.9175C26.3867 44.2066 22.8007 39.0469 20.199 32.9782C20.2706 32.805 20.3399 32.6338 20.4093 32.4586C20.741 31.6251 21.0511 30.7774 21.3459 29.9174C22.7465 33.669 24.5222 37.1048 26.6491 40.1636C28.3445 42.6049 30.2221 44.7324 32.2276 46.487C32.4596 46.6887 32.7523 46.7906 33.0449 46.7906C33.368 46.7906 33.6889 46.6704 33.9252 46.4299C34.3783 45.9734 34.3501 45.2582 33.8645 44.8343C32.0021 43.204 30.2503 41.2171 28.6611 38.9287C26.055 35.1791 23.9997 30.8242 22.5427 25.9803C22.959 24.4234 23.3189 22.836 23.6203 21.2241C24.9493 27.4537 27.2952 33.1168 30.5343 37.7793C32.065 39.9822 33.7409 41.8754 35.5166 43.4078C35.7464 43.6075 36.0391 43.7053 36.3296 43.7053C36.6548 43.7053 36.9779 43.5831 37.2142 43.3406C37.663 42.882 37.6305 42.1668 37.1426 41.7449V41.7429Z"
            fill="#233568"/>
    </g>
  </g>
</svg>
