<?xml version="1.0" encoding="UTF-8"?>
<svg xmlns="http://www.w3.org/2000/svg" viewBox="60 40 900 320">
  <defs>
    <style>
      .st0 { fill: #1d1d1b; }
      .st2 { fill: #f9b233; }
    </style>
  </defs>
  <path class="st0" d="M164.8,314.52c25.17,0,42.54-8.32,42.54-23.69,0-11.68-9.56-20.01-25.97-22.89l-43.02-7.52c-29.79-4.96-57.52-20.01-57.52-55.22,0-37.77,32.66-60.98,81.09-60.98,37.6,0,81.1,12.8,85.24,64.02h-39.83c-2.07-21.13-20.71-29.45-45.41-29.45s-38.4,9.12-38.4,22.89c0,10.4,7.49,20.33,30.11,24.17l36.33,5.76c29.32,5.44,58.31,18.25,58.31,56.02,0,41.13-36.01,62.26-84.76,62.26-45.88,0-85.24-18.25-90.18-69.78l39.67.48c4.62,24.01,22.31,33.93,51.78,33.93Z"/>
  <path class="st0" d="M420.04,341.89c-16.89,6.24-31.07,7.84-44.29,7.84-49.55,0-76-29.93-76-80.19v-83.71h-45.88v-36.17h45.88v-71.86h43.02v71.86h72.01v36.17h-72.01v83.87c0,28.17,14.02,40.33,38.08,40.33,11.63,0,23.1-3.36,33.14-7.52l6.05,39.37Z"/>
  <path class="st0" d="M627.14,149.66v195.27h-42.54v-19.05c-16.89,15.37-38.08,24.17-63.25,24.17-50.51,0-84.28-36.17-84.28-92.19v-108.2h42.54v105.48c0,35.69,19.44,55.7,50.51,55.7,18.96,0,38.87-10.72,54.65-30.73v-130.44h42.38Z"/>
  <path class="st2" d="M847.35,49.95v294.82h-42.69v-15.84c-16.57,13.28-37.6,20.81-62.45,20.81-54.65,0-98.46-45.62-98.46-103.07s43.81-102.11,98.46-102.11c24.85,0,45.88,7.52,62.45,20.33V49.95h42.69ZM804.66,282.19v-70.26c-14.5-20.81-34.73-28.17-56.24-28.17-35.53,0-61.66,28.65-61.66,63.06s25.97,64.02,61.66,64.02c21.51,0,41.74-7.52,56.24-28.65Z"/>
  <path class="st2" d="M912.03,149.68v194.79h-42.38v-194.79h42.38Z"/>
  <path class="st2" d="M934.16,49.95l-64.52,22.25,42.38,42.73,22.14-64.98Z"/>
</svg>
